<?xml version="1.0"?>
<svg xmlns="http://www.w3.org/2000/svg" xmlns:xlink="http://www.w3.org/1999/xlink" version="1.1" id="Layer_1_1_" x="0px" y="0px" viewBox="0 0 64 64" style="enable-background:new 0 0 64 64;" xml:space="preserve" width="512px" height="512px" class=""><g><link xmlns="" type="text/css" id="dark-mode" rel="stylesheet" href=""/><style xmlns="" type="text/css" id="dark-mode-custom-style"/><g>
	<g>
		<g>
			<path style="fill:#D39E00" d="M23,49c-3.02,0-6.002-0.818-8.624-2.366l1.018-1.723C17.708,46.277,20.338,47,23,47     c8.271,0,15-6.729,15-15c0-2.662-0.723-5.292-2.089-7.606l1.723-1.018C39.182,25.998,40,28.98,40,32C40,41.374,32.374,49,23,49z" data-original="#F0BC5E" class="active-path" data-old_color="#d39e00"/>
		</g>
	</g>
	<g>
		<g>
			<path style="fill:#D39E00" d="M8.366,40.624C6.818,38.002,6,35.02,6,32c0-9.374,7.626-17,17-17c3.02,0,6.002,0.818,8.624,2.366     l-1.018,1.723C28.292,17.723,25.662,17,23,17c-8.271,0-15,6.729-15,15c0,2.662,0.723,5.292,2.089,7.606L8.366,40.624z" data-original="#F0BC5E" class="active-path" data-old_color="#d39e00"/>
		</g>
	</g>
	<g>
		<g>
			<g>
				<path style="fill:#D39E00" d="M11.277,37.595C10.43,35.82,10,33.938,10,32c0-7.168,5.832-13,13-13      c1.938,0,3.82,0.43,5.595,1.277l-0.863,1.805C26.229,21.364,24.638,21,23,21c-6.065,0-11,4.935-11,11      c0,1.638,0.364,3.229,1.082,4.731L11.277,37.595z" data-original="#F0BC5E" class="active-path" data-old_color="#d39e00"/>
			</g>
		</g>
		<g>
			<g>
				<path style="fill:#D39E00" d="M23,45c-1.938,0-3.82-0.43-5.595-1.277l0.863-1.805C19.771,42.636,21.362,43,23,43      c6.065,0,11-4.935,11-11c0-1.638-0.364-3.229-1.082-4.731l1.805-0.863C35.57,28.18,36,30.062,36,32C36,39.168,30.168,45,23,45z" data-original="#F0BC5E" class="active-path" data-old_color="#d39e00"/>
			</g>
		</g>
	</g>
	<g>
		<path d="M55.636,50.222c-1.7-1.7-2.636-3.96-2.636-6.364v-0.364c0-1.886,0.624-3.791,1.854-5.66    c0.954-1.451,1.33-3.208,1.059-4.95c-0.409-2.63-2.397-4.827-4.913-5.589V1H9.586L1,9.586V59h35.536v-2H3V11h8V3h38v24.005    c-1.709,0.004-3.369,0.623-4.651,1.763C42.856,30.096,42,32.003,42,34c0,1.506,0.472,2.94,1.366,4.149    C44.716,39.976,45,42.138,45,43.629v0.229c0,2.404-0.936,4.664-2.636,6.364L41,51.586V56h2v-3h12v3h2v-4.414L55.636,50.222z     M4.414,9L9,4.414V9H4.414z M47,43.858v-0.229c0-2.571-0.701-4.877-2.026-6.669C44.337,36.098,44,35.075,44,34    c0-1.426,0.612-2.789,1.678-3.738c1.081-0.961,2.48-1.397,3.931-1.227c2.173,0.255,3.993,2.003,4.328,4.156    c0.195,1.25-0.073,2.508-0.753,3.543C51.734,38.936,51,41.21,51,43.494v0.364c0,2.65,0.938,5.152,2.645,7.142h-9.29    C46.062,49.009,47,46.508,47,43.858z" data-original="#000000" class="" style="fill:#222224" data-old_color="#000000"/>
		<path d="M49,35c-0.551,0-1-0.449-1-1s0.449-1,1-1s1,0.449,1,1h2c0-1.654-1.346-3-3-3s-3,1.346-3,3s1.346,3,3,3V35z" data-original="#000000" class="" style="fill:#222224" data-old_color="#000000"/>
		<path d="M39.793,21.16c-0.793-1.225-1.685-2.336-2.651-3.302c-0.967-0.967-2.078-1.859-3.302-2.651l-0.679-0.439L5.768,42.161    l0.439,0.679c1.552,2.399,3.555,4.402,5.954,5.954l0.679,0.439l27.394-27.394L39.793,21.16z M12.58,46.662    c-1.648-1.171-3.071-2.594-4.242-4.242L33.42,17.337c0.844,0.597,1.618,1.246,2.308,1.936c0.689,0.689,1.337,1.462,1.935,2.307    L12.58,46.662z" data-original="#000000" class="" style="fill:#222224" data-old_color="#000000"/>
		<rect x="31.586" y="21" transform="matrix(0.7071 -0.7071 0.7071 0.7071 -5.8909 29.7782)" width="2.828" height="2" data-original="#000000" class="" style="fill:#222224" data-old_color="#000000"/>
		<rect x="27.586" y="25" transform="matrix(0.7071 -0.7071 0.7071 0.7071 -9.8909 28.1213)" width="2.828" height="2" data-original="#000000" class="" style="fill:#222224" data-old_color="#000000"/>
		<rect x="23.586" y="29" transform="matrix(0.7071 -0.7071 0.7071 0.7071 -13.8909 26.4645)" width="2.828" height="2" data-original="#000000" class="" style="fill:#222224" data-old_color="#000000"/>
		<rect x="19.586" y="33" transform="matrix(0.7071 -0.7071 0.7071 0.7071 -17.8909 24.8076)" width="2.828" height="2" data-original="#000000" class="" style="fill:#222224" data-old_color="#000000"/>
		<rect x="15.586" y="37" transform="matrix(0.7071 -0.7071 0.7071 0.7071 -21.8909 23.1508)" width="2.828" height="2" data-original="#000000" class="" style="fill:#222224" data-old_color="#000000"/>
		<rect x="11.586" y="41" transform="matrix(0.7071 -0.7071 0.7071 0.7071 -25.8909 21.4939)" width="2.828" height="2" data-original="#000000" class="" style="fill:#222224" data-old_color="#000000"/>
		<rect x="29" y="5" width="18" height="2" data-original="#000000" class="" style="fill:#222224" data-old_color="#000000"/>
		<rect x="13" y="9" width="34" height="2" data-original="#000000" class="" style="fill:#222224" data-old_color="#000000"/>
		<rect x="5" y="53" width="2" height="2" data-original="#000000" class="" style="fill:#222224" data-old_color="#000000"/>
		<rect x="9" y="53" width="26" height="2" data-original="#000000" class="" style="fill:#222224" data-old_color="#000000"/>
	</g>
	<g>
		<g>
			<path style="fill:#D39E00" d="M63,63H35v-3c0-2.757,2.243-5,5-5h18c2.757,0,5,2.243,5,5V63z" data-original="#F0BC5E" class="active-path" data-old_color="#d39e00"/>
		</g>
	</g>
</g></g> </svg>
