<svg xmlns="http://www.w3.org/2000/svg" width="69.17" height="63" viewBox="0 0 69.17 63">
  <defs>
    <style>
      .cls-1 {
        fill: #1f1f21;
      }

      .cls-2 {
        fill: #5d5d5d;
      }
    </style>
  </defs>
  <title>lang-sprites</title>
  <g id="Слой_2" data-name="Слой 2">
    <path class="cls-1" d="M68.84,61v-4.5H69a2.45,2.45,0,0,0-.09-.88c-.12-.28-.5-.26-.5-.26a1.45,1.45,0,0,0-.31-.64.83.83,0,0,0-.44-.24V52.74H68V52h-.19a2.07,2.07,0,0,0,.7-1.83c-.21-1.2-1.91-1.77-2.33-3A9.46,9.46,0,0,1,65.86,46V44.06h.39v-.13h-.39v-.37h-.14v.37h-.39v.12h.39v1.62a8.29,8.29,0,0,1-.39,1.5c-.41,1.22-2.12,1.78-2.32,3a2.09,2.09,0,0,0,.7,1.83h-.19v.74h.26V54.5c-.6.09-.65.84-.65.84a.74.74,0,0,0-.4.1V53.73h0a1.83,1.83,0,0,0,.6-1.57c-.14-.9-1.24-1.38-1.7-2.2,0-.05,0-.19,0-.45a.94.94,0,0,0-.25-.65,1.72,1.72,0,0,1,.06-.59c.1-.34-.28-.68-.25-.79s-.28-.64-.25-.82a4.21,4.21,0,0,0-.07-.81h.17V45.6h-.71l-1.68-6.22v-.61h.11v-1.2h.1v-.4a1.12,1.12,0,0,0,.26-1.11c-.16-.39-1-1.23-1.15-1.5a1.14,1.14,0,0,1-.1-.41v-.76h.3v-.1h-.3V33h-.12v.29h-.3v.1h.3v.8a1.29,1.29,0,0,1-.1.37c-.11.27-1,1.11-1.15,1.5a1.1,1.1,0,0,0,.27,1.11v.4h.08v1.2H57v.61L55.36,45.6h-.82v.25h.33c-.12.22,0,.73-.08.9s-.07.73-.25,1a1.51,1.51,0,0,0-.1.86.6.6,0,0,0-.18.26c-.06.15.07.6,0,1-.6-.52-1.37-1-1.64-1.65a6.7,6.7,0,0,1-.36-1.22h0V45.58h.38v-.12h-.38v-.34H52.1v.34h-.34v.12h.34V47a7.52,7.52,0,0,1-.36,1.2c-.26.65-1,1.1-1.57,1.58-.65-.55-1.46-1.06-1.75-1.82A8.67,8.67,0,0,1,48,46.48V44.86h.35v-.12H48v-.33h-.13v.33h-.36v.12h.36v1.62a8,8,0,0,1-.42,1.44c-.48,1.26-2.4,1.84-2.64,3.08a2.08,2.08,0,0,0,.8,1.89V59.3a2,2,0,0,1-.63-.75,4.24,4.24,0,0,1-.22-.75v-.62H45v-.09h-.27v-.26h-.1v.26H44.4v.09h.27v.67a5,5,0,0,1-.21.7c-.26.7-1.31,1-1.44,1.71a1.15,1.15,0,0,0,.46,1.07V63H69.17V61Z"/>
    <path class="cls-1" d="M38.85,44.1l-1.47,1.46h0l-1.07-1.08-.29.29,1.08,1.08a.31.31,0,1,0,.61,0h0l1.46-1.46ZM40.7,61.45V48.58H41V43.33H41v-.41h-.57v-.61h0L39.1,39.78h0V38h0c-.1-.24-1.53-4.39-1.64-5H37.3c-.1.63-1.53,4.78-1.63,5h0v1.76h0L34.3,42.31h0v.61h-.58v.41h.1v5.25h.24V61.45H33V63h8.75V61.45Zm-3.33-13a2.6,2.6,0,1,1,2.6-2.6A2.59,2.59,0,0,1,37.37,48.46Z"/>
    <path class="cls-2" d="M68.84,28v-4.5H69a2.45,2.45,0,0,0-.09-.88c-.12-.28-.5-.26-.5-.26a1.45,1.45,0,0,0-.31-.64.83.83,0,0,0-.44-.24V19.74H68V19h-.19a2.07,2.07,0,0,0,.7-1.83c-.21-1.2-1.91-1.77-2.33-3A9.46,9.46,0,0,1,65.86,13V11.06h.39v-.13h-.39v-.37h-.14v.37h-.39v.12h.39v1.62a8.29,8.29,0,0,1-.39,1.5c-.41,1.22-2.12,1.78-2.32,3a2.09,2.09,0,0,0,.7,1.83h-.19v.74h.26V21.5c-.6.09-.65.84-.65.84a.74.74,0,0,0-.4.1V20.73h0a1.83,1.83,0,0,0,.6-1.57c-.14-.9-1.24-1.38-1.7-2.2,0-.05,0-.19,0-.45a.94.94,0,0,0-.25-.65,1.72,1.72,0,0,1,.06-.59c.1-.34-.28-.68-.25-.79s-.28-.64-.25-.82a4.21,4.21,0,0,0-.07-.81h.17V12.6h-.71L58.71,6.38V5.77h.11V4.57h.1v-.4a1.12,1.12,0,0,0,.26-1.11c-.16-.39-1-1.23-1.15-1.5a1.14,1.14,0,0,1-.1-.41V.39h.3V.29h-.3V0h-.12V.29h-.3v.1h.3v.8a1.29,1.29,0,0,1-.1.37c-.11.27-1,1.11-1.15,1.5a1.1,1.1,0,0,0,.27,1.11v.4h.08v1.2H57v.61L55.36,12.6h-.82v.25h.33c-.12.22,0,.73-.08.9s-.07.73-.25,1a1.51,1.51,0,0,0-.1.86.6.6,0,0,0-.18.26c-.06.15.07.6,0,.95-.6-.52-1.37-1-1.64-1.65a6.7,6.7,0,0,1-.36-1.22h0V12.58h.38v-.12h-.38v-.34H52.1v.34h-.34v.12h.34V14a7.52,7.52,0,0,1-.36,1.2c-.26.65-1,1.1-1.57,1.58-.65-.55-1.46-1.06-1.75-1.82A8.67,8.67,0,0,1,48,13.48V11.86h.35v-.12H48v-.33h-.13v.33h-.36v.12h.36v1.62a8,8,0,0,1-.42,1.44c-.48,1.26-2.4,1.84-2.64,3.08a2.08,2.08,0,0,0,.8,1.89V26.3a2,2,0,0,1-.63-.75,4.24,4.24,0,0,1-.22-.75v-.62H45v-.09h-.27v-.26h-.1v.26H44.4v.09h.27v.67a5,5,0,0,1-.21.7c-.26.7-1.31,1-1.44,1.71a1.15,1.15,0,0,0,.46,1.07V30H69.17V28Z"/>
    <path class="cls-2" d="M38.85,11.1l-1.47,1.46h0l-1.07-1.08-.29.29,1.08,1.08a.31.31,0,1,0,.61,0h0l1.46-1.46ZM40.7,28.45V15.58H41V10.33H41V9.92h-.57V9.31h0L39.1,6.78h0V5h0C39,4.78,37.55.63,37.44,0H37.3c-.1.63-1.53,4.78-1.63,5h0V6.78h0L34.3,9.31h0v.61h-.58v.41h.1v5.25h.24V28.45H33V30h8.75V28.45Zm-3.33-13a2.6,2.6,0,1,1,2.6-2.6A2.59,2.59,0,0,1,37.37,15.46Z"/>
    <path class="cls-1" d="M29.41,51.39A6.19,6.19,0,0,1,29,48.26a1.29,1.29,0,0,1,.41-.8s0-.27-.26-.27-.94.08-.94.08a8.71,8.71,0,0,0,.64-3,27.63,27.63,0,0,0-.05-3.18,1,1,0,0,0-.35-.73c-.26-.24-.52-.72-.39-.8s.3.06.35-.09a.54.54,0,0,0,0-.22c0-.11,0-.19,0-.19s.12,0,.12-.09a1.16,1.16,0,0,0-.19-.26.69.69,0,0,0-.05-.33.57.57,0,0,0-.6-.32c-.29.07-.53.06-.55.52,0,.28.16.28.13.43a1,1,0,0,1-.09.44c-.09.11-.59-.52-.94-.66a1.83,1.83,0,0,0-.63-.14L25.2,39a10.29,10.29,0,0,0-2.12-.48c-.74,0-.94.1-.81.43s.4.68.24.83-.3.34-.15.46a1.6,1.6,0,0,0,.35.2s-.68,1,.65.87S25,40.8,25,40.8a1.46,1.46,0,0,1,.46.15,2.25,2.25,0,0,0,.37.29,1,1,0,0,0,.7.32c.5,0,.64-.05.72.12s.46.56.42.85-.51.47-.71.85c-.45.86-.21,1.92-1.33,3.23a14.59,14.59,0,0,0-.91,1.21,3.33,3.33,0,0,0-.39.9,5,5,0,0,0,1,.75,4.26,4.26,0,0,1,.89.69l0,.4s1,.32.77.81-1.05.48-1.05.48l0,.66.83,0s0,1.24-2.95,1.77a62.84,62.84,0,0,1-8.48.56l.11-8.18v-.41s.59-.32.38-.73a4.66,4.66,0,0,0-.36-.58l.14-9.8.25-.15-.4-1.72L15,35l.3.18-.08,5.65-.08,4.06a.69.69,0,0,1-.29.29c-.19.1-.28,0-.28,0A2.58,2.58,0,0,0,13.93,44a2.8,2.8,0,0,0-.84-.64l0-.31s.31.19.39.07a.49.49,0,0,0,0-.46,2.12,2.12,0,0,1-.07-.36c0-.08.15,0,.15-.13a1.79,1.79,0,0,0-.26-.43,1.69,1.69,0,0,0-.14-.51c-.09-.18-.21-.22-.63-.1s-.54.32-.5.66.13.48.05.55-.27.22-.16.34a1.42,1.42,0,0,0,.28.22l-.06.41-.54.13s.13-.39,0-.49a2.43,2.43,0,0,1-.23-.17V34.85l.25-.13L11.25,33l-.4,1.71.26.15,0,8a.43.43,0,0,0-.1.38c0,.11.08.22.11.32V44c-.08.23-.24.58-.24.58a3.27,3.27,0,0,0-.52-1.14,2,2,0,0,0-.66-.34v-.46a.81.81,0,0,0,.31-.2c.09-.12,0-.29-.07-.44a3.66,3.66,0,0,1-.15-.7C9.68,41,9.59,41,9.59,41s-.06-.29-.43-.22-.5.27-.48.7-.13.44-.11.66.2.44.28.44.11.19,0,.31a7.55,7.55,0,0,1-1,.43,14,14,0,0,0-.06,1.78c0,.8.2,1.09.37,1.21l.26.2a7.47,7.47,0,0,0-.19,1.09c0,.51,0,.68,0,.68l-.4-.19a3.89,3.89,0,0,1-.11-.66c0-.22,0-.66,0-.82a7.77,7.77,0,0,1,0-1.63,4.17,4.17,0,0,0,0-1,.87.87,0,0,0-.14-.66A1,1,0,0,0,7,42.94c-.2-.09-.37-.07-.41-.28a1.6,1.6,0,0,1,0-.44s.24.05.31-.37.11-.58-.13-.7a.69.69,0,0,0-.11-.57.41.41,0,0,0-.44-.23l-.15-.05a.71.71,0,0,0-.5.32.86.86,0,0,0-.06.55c0,.16-.2.37,0,.51s0,.39.15.46l.2.08s.09.36-.05.31A1.32,1.32,0,0,0,5,42.29a2.75,2.75,0,0,0-.89.17c-.22.12-.09.17-.42.17H3s-.15-.17-.22-.17l-.89-.05-.2.1-.57,0L.8,42.39s-.11-.3-.18-.3a8.37,8.37,0,0,1,.85-3.15A2.13,2.13,0,0,1,3.18,38a3,3,0,0,0,1.57-.78,2.57,2.57,0,0,0,.44-.78s.07-.31-.06-.08c-.38.67-.55.84-.79,1A10.36,10.36,0,0,1,2.22,38c-.79.28-1.05.6-1.42,1.5a12.89,12.89,0,0,0-.55,2.69.45.45,0,0,0-.19.32c0,.19-.11.53,0,.61a.13.13,0,0,0,.16,0,10.69,10.69,0,0,0,.54,3.25,2,2,0,0,0,1.12,1.14,4.67,4.67,0,0,1,.07,2.09c-.31.83-.53,1.72-.53,1.72s1,.58,1.31.73a1.22,1.22,0,0,1,.46.29l0,.59a1.69,1.69,0,0,0,.89.48,2.49,2.49,0,0,1,1,.44c.2.15.15.66.15.66L.69,54.07,1.09,56l1.41.24.38,1A13,13,0,0,0,6,58.53a24.62,24.62,0,0,0,5,.49s-.53,1.14.1,1.84a1.75,1.75,0,0,0,1.53.54v1.52h2V61.64a8.49,8.49,0,0,0,1.18,0,.86.86,0,0,0,.39-.24v1.5l2.59.07-.14-1.88,1.69,0V63h3a11.56,11.56,0,0,0-.16-2.43,5.23,5.23,0,0,0-.77-1.86c-.06,0,4.92-.4,6.62-2.21S29.91,52.87,29.41,51.39ZM1.78,46.59a5.53,5.53,0,0,0,0,.56,2.38,2.38,0,0,1-.87-1.22,7.28,7.28,0,0,1-.35-2.81.39.39,0,0,1,.2,0,2.07,2.07,0,0,1,.52.17L3,44A7.87,7.87,0,0,0,1.78,46.59Zm6.91,7.06a.91.91,0,0,0,0,.47,2.93,2.93,0,0,1,0,.45l-1-.11s.22-.1.16-.24S7.63,54,7.63,54a1.57,1.57,0,0,1,.06-.62c.1-.31.38-.89.38-.89l.59.08A6,6,0,0,1,8.69,53.65Zm2.17,1.1s.17-.16.13-.26-.36-.07-.62-.13a.57.57,0,0,1-.47-.47,8.52,8.52,0,0,1,.1-1.31l.34,0s.29-3.62.29-4.47a8.21,8.21,0,0,0-.05-1.53c-.07-.28-.13-.47-.13-.47l0-.37a.78.78,0,0,0,.4.17.72.72,0,0,0,.22,0v3.45c0,.09,0,.17,0,.23-.09.66.06,2.48,0,2.91a9.08,9.08,0,0,0,0,1.28l.08.09v.88Zm4.17.06H14.4s.06-.29-.09-.31-.61,0-.72-.25a1.23,1.23,0,0,1,0-.68l.28,0,.31-2.21S15,51.2,15,51s.11-1.11.11-1.11Z"/>
    <path class="cls-2" d="M29.41,18.39A6.19,6.19,0,0,1,29,15.26a1.29,1.29,0,0,1,.41-.8s0-.27-.26-.27-.94.08-.94.08a8.71,8.71,0,0,0,.64-3,27.63,27.63,0,0,0-.05-3.18,1,1,0,0,0-.35-.73c-.26-.24-.52-.72-.39-.8s.3.06.35-.09a.54.54,0,0,0,0-.22c0-.11,0-.19,0-.19s.12,0,.12-.09a1.16,1.16,0,0,0-.19-.26.69.69,0,0,0-.05-.33.57.57,0,0,0-.6-.32c-.29.07-.53.06-.55.52,0,.28.16.28.13.43a1,1,0,0,1-.09.44c-.09.11-.59-.52-.94-.66a1.83,1.83,0,0,0-.63-.14L25.2,6a10.29,10.29,0,0,0-2.12-.48c-.74,0-.94.1-.81.43s.4.68.24.83-.3.34-.15.46a1.6,1.6,0,0,0,.35.2s-.68,1,.65.87S25,7.8,25,7.8a1.46,1.46,0,0,1,.46.15,2.25,2.25,0,0,0,.37.29,1,1,0,0,0,.7.32c.5,0,.64-.05.72.12s.46.56.42.85-.51.47-.71.85c-.45.86-.21,1.92-1.33,3.23a14.59,14.59,0,0,0-.91,1.21,3.33,3.33,0,0,0-.39.9,5,5,0,0,0,1,.75,4.26,4.26,0,0,1,.89.69l0,.4s1,.32.77.81-1.05.48-1.05.48l0,.66.83,0s0,1.24-2.95,1.77a62.84,62.84,0,0,1-8.48.56l.11-8.18v-.41s.59-.32.38-.73a4.66,4.66,0,0,0-.36-.58l.14-9.8L15.83,2,15.43.24,15,2l.3.18-.08,5.65-.08,4.06a.69.69,0,0,1-.29.29c-.19.1-.28,0-.28,0A2.58,2.58,0,0,0,13.93,11a2.8,2.8,0,0,0-.84-.64l0-.31s.31.19.39.07a.49.49,0,0,0,0-.46,2.12,2.12,0,0,1-.07-.36c0-.08.15,0,.15-.13a1.79,1.79,0,0,0-.26-.43,1.69,1.69,0,0,0-.14-.51c-.09-.18-.21-.22-.63-.1s-.54.32-.5.66.13.48.05.55-.27.22-.16.34a1.42,1.42,0,0,0,.28.22l-.06.41-.54.13s.13-.39,0-.49a2.43,2.43,0,0,1-.23-.17v-8l.25-.13L11.25,0l-.4,1.71.26.15,0,8a.43.43,0,0,0-.1.38c0,.11.08.22.11.32V11c-.08.23-.24.58-.24.58a3.27,3.27,0,0,0-.52-1.14,2,2,0,0,0-.66-.34V9.61a.81.81,0,0,0,.31-.2c.09-.12,0-.29-.07-.44a3.66,3.66,0,0,1-.15-.7C9.68,8,9.59,8,9.59,8s-.06-.29-.43-.22-.5.27-.48.7-.13.44-.11.66.2.44.28.44.11.19,0,.31a7.55,7.55,0,0,1-1,.43,14,14,0,0,0-.06,1.78c0,.8.2,1.09.37,1.21l.26.2a7.47,7.47,0,0,0-.19,1.09c0,.51,0,.68,0,.68l-.4-.19a3.89,3.89,0,0,1-.11-.66c0-.22,0-.66,0-.82a7.77,7.77,0,0,1,0-1.63,4.17,4.17,0,0,0,0-1,.87.87,0,0,0-.14-.66A1,1,0,0,0,7,9.94c-.2-.09-.37-.07-.41-.28a1.6,1.6,0,0,1,0-.44s.24,0,.31-.37.11-.58-.13-.7a.69.69,0,0,0-.11-.57.41.41,0,0,0-.44-.23l-.15,0a.71.71,0,0,0-.5.32.86.86,0,0,0-.06.55c0,.16-.2.37,0,.51s0,.39.15.46l.2.08s.09.36-.05.31A1.32,1.32,0,0,0,5,9.29a2.75,2.75,0,0,0-.89.17c-.22.12-.09.17-.42.17H3s-.15-.17-.22-.17l-.89-.05-.2.1-.57,0L.8,9.39s-.11-.3-.18-.3a8.37,8.37,0,0,1,.85-3.15A2.13,2.13,0,0,1,3.18,5a3,3,0,0,0,1.57-.78,2.57,2.57,0,0,0,.44-.78s.07-.31-.06-.08c-.38.67-.55.84-.79,1A10.36,10.36,0,0,1,2.22,5c-.79.28-1.05.6-1.42,1.5A12.89,12.89,0,0,0,.25,9.14a.45.45,0,0,0-.19.32c0,.19-.11.53,0,.61a.13.13,0,0,0,.16,0,10.69,10.69,0,0,0,.54,3.25,2,2,0,0,0,1.12,1.14,4.67,4.67,0,0,1,.07,2.09c-.31.83-.53,1.72-.53,1.72s1,.58,1.31.73a1.22,1.22,0,0,1,.46.29l0,.59a1.69,1.69,0,0,0,.89.48,2.49,2.49,0,0,1,1,.44c.2.15.15.66.15.66L.69,21.07,1.09,23l1.41.24.38,1A13,13,0,0,0,6,25.53a24.62,24.62,0,0,0,5,.49s-.53,1.14.1,1.84a1.75,1.75,0,0,0,1.53.54v1.52h2V28.64a8.49,8.49,0,0,0,1.18,0,.86.86,0,0,0,.39-.24v1.5l2.59.07-.14-1.88,1.69,0V30h3a11.56,11.56,0,0,0-.16-2.43,5.23,5.23,0,0,0-.77-1.86c-.06,0,4.92-.4,6.62-2.21S29.91,19.87,29.41,18.39ZM1.78,13.59a5.53,5.53,0,0,0,0,.56,2.38,2.38,0,0,1-.87-1.22,7.28,7.28,0,0,1-.35-2.81.39.39,0,0,1,.2,0,2.07,2.07,0,0,1,.52.17L3,11A7.87,7.87,0,0,0,1.78,13.59Zm6.91,7.06a.91.91,0,0,0,0,.47,2.93,2.93,0,0,1,0,.45l-1-.11s.22-.1.16-.24S7.63,21,7.63,21a1.57,1.57,0,0,1,.06-.62c.1-.31.38-.89.38-.89l.59.08A6,6,0,0,1,8.69,20.65Zm2.17,1.1s.17-.16.13-.26-.36-.07-.62-.13a.57.57,0,0,1-.47-.47,8.52,8.52,0,0,1,.1-1.31l.34,0s.29-3.62.29-4.47a8.21,8.21,0,0,0-.05-1.53c-.07-.28-.13-.47-.13-.47l0-.37a.78.78,0,0,0,.4.17.72.72,0,0,0,.22,0v3.45c0,.09,0,.17,0,.23-.09.66.06,2.48,0,2.91a9.08,9.08,0,0,0,0,1.28l.08.09v.88Zm4.17.06H14.4s.06-.29-.09-.31-.61,0-.72-.25a1.23,1.23,0,0,1,0-.68l.28,0,.31-2.21S15,18.2,15,18s.11-1.11.11-1.11Z"/>
  </g>
</svg>
