<?xml version="1.0"?>
<svg xmlns="http://www.w3.org/2000/svg" xmlns:xlink="http://www.w3.org/1999/xlink" version="1.1" id="Capa_1" x="0px" y="0px" viewBox="0 0 496 496" style="enable-background:new 0 0 496 496;" xml:space="preserve" width="512px" height="512px" class=""><g><link xmlns="" type="text/css" id="dark-mode" rel="stylesheet"/><style xmlns="" type="text/css" id="dark-mode-custom-style"/><circle style="fill:#D39E00" cx="248" cy="192" r="112" data-original="#F0BC5E" class="" data-old_color="#d39e00"/><path d="M392,192c0-29.368-8.792-57.616-25.416-81.72l-13.168,9.096C368.184,140.784,376,165.896,376,192  c0,33.08-12.632,64.472-35.576,88.384c-6.976,7.272-12.712,15.32-17.248,23.936c-1.048-0.136-2.088-0.32-3.176-0.32h-32v16h32  c4.416,0,8,3.584,8,8s-3.584,8-8,8h-16v16h16c4.416,0,8,3.584,8,8s-3.584,8-8,8h-32v16h15.312  c-9.976,17.192-27.464,28.856-47.312,31.368V384h16v-16h-32v-16h24h8h16v-16h-16v-32h-16v-32.424  c19.776-1.992,38.256-11.296,51.624-26.24l-11.92-10.672C283.568,248.224,266.184,256,248,256c-35.288,0-64-28.712-64-64  s28.712-64,64-64c18.176,0,35.568,7.776,47.704,21.336l11.92-10.672C292.464,121.72,270.728,112,248,112  c-3.728,0-7.376,0.344-10.976,0.84l-3.456-15.768c12.128-1.84,24.728-1.312,36.592,1.496l3.672-15.576  c-16.816-3.968-34.856-3.968-51.672,0l-7.664,1.816l6.976,31.808C190.384,127.592,168,157.2,168,192  c0,41.408,31.632,75.568,72,79.592V304h-16v16h32v16h-56v16h24v32h16v31.48c-7.112-0.88-13.96-2.904-20.44-6.128l-7.128,14.328  c11.12,5.52,23.08,8.32,35.568,8.32c31.968,0,60.768-19.128,73.376-48.136C333.96,383.136,344,372.768,344,360  c0-6.168-2.408-11.744-6.24-16c3.84-4.256,6.24-9.832,6.24-16c0-6.36-2.528-12.112-6.584-16.416  c3.824-7.216,8.664-13.992,14.552-20.128C377.784,264.544,392,229.224,392,192z" data-original="#000000" class="active-path" style="fill:#222224" data-old_color="#000000"/><path d="M168,360c0-4.416,3.584-8,8-8h8v-16h-8c-4.416,0-8-3.584-8-8s3.584-8,8-8h32v-16h-32c-1.024,0-2.008,0.176-3,0.304  c-4.312-8.432-9.696-16.064-16.2-22.656c-21.888-22.208-34.432-51.064-36.36-81.648h15.848c2.736,38.648,25.2,73.136,60.008,91.296  l7.408-14.184C171.816,260.472,152,227.856,152,192s19.816-68.472,51.704-85.112l-7.408-14.184  c-34.808,18.16-57.272,52.648-60.008,91.296h-15.84c0.184-3.048,0.272-6.096,0.672-9.16  c7.464-57.384,54.664-103.664,112.248-110.032c23.504-2.608,46.648,1.28,67.416,10.68l-15.88,27.536l7.4,3.856  C324.184,123.528,344,156.144,344,192c0,9.432-1.4,18.624-4,27.368l-14.496-7.44C327.16,205.448,328,198.768,328,192  c0-12.488-2.8-24.448-8.32-35.56l-14.328,7.128c3.224,6.472,5.248,13.328,6.128,20.44h-16.2c-3.824-22.664-23.536-40-47.28-40  c-26.472,0-48,21.528-48,48s21.528,48,48,48c23.736,0,43.448-17.336,47.28-40h16.168c-0.568,4.544-1.56,9.008-3.088,13.336  l-2.32,6.592l28.088,14.408c-8.856,17.984-23.28,33.088-41.832,42.768l7.408,14.184C336.896,271.888,360,233.84,360,192  c0-39.056-20.128-74.808-53.056-95.168l8.008-13.888c8.384,5.16,16.256,11.272,23.392,18.384L349.64,90  c-31.096-30.976-74.12-45.92-118.048-41.096c-64.816,7.168-117.952,59.272-126.344,123.872c-5.8,44.552,8.84,88.336,40.16,120.104  c5.32,5.392,9.744,11.648,13.288,18.56C154.576,315.76,152,321.576,152,328c0,6.168,2.408,11.744,6.24,16  c-3.84,4.256-6.24,9.832-6.24,16c0,12.784,10.072,23.168,22.68,23.864c3.392,7.816,7.936,15.04,13.688,21.472l11.92-10.672  c-2.96-3.312-5.52-6.88-7.712-10.664H208v-16h-32C171.584,368,168,364.416,168,360z M248,224c-17.648,0-32-14.352-32-32  s14.352-32,32-32s32,14.352,32,32S265.648,224,248,224z" data-original="#000000" class="active-path" style="fill:#222224" data-old_color="#000000"/><polygon points="137.136,439.92 172.08,434.928 139.88,480 0,480 0,496 148.12,496 184,445.76 184,480 200,480 200,414.776   134.864,424.08 " data-original="#000000" class="active-path" style="fill:#222224" data-old_color="#000000"/><polygon points="430.864,16.08 433.136,31.92 467.528,27.008 420.088,88 368,88 368,104 427.912,104 480,37.032 480,72 496,72   496,6.776 " data-original="#000000" class="active-path" style="fill:#222224" data-old_color="#000000"/><rect x="440" y="192" width="16" height="16" data-original="#000000" class="active-path" style="fill:#222224" data-old_color="#000000"/><rect x="440" y="224" width="16" height="16" data-original="#000000" class="active-path" style="fill:#222224" data-old_color="#000000"/><rect x="456" y="208" width="16" height="16" data-original="#000000" class="active-path" style="fill:#222224" data-old_color="#000000"/><rect x="424" y="208" width="16" height="16" data-original="#000000" class="active-path" style="fill:#222224" data-old_color="#000000"/><rect x="120" width="16" height="16" data-original="#000000" class="active-path" style="fill:#222224" data-old_color="#000000"/><rect x="120" y="32" width="16" height="16" data-original="#000000" class="active-path" style="fill:#222224" data-old_color="#000000"/><rect x="136" y="16" width="16" height="16" data-original="#000000" class="active-path" style="fill:#222224" data-old_color="#000000"/><rect x="104" y="16" width="16" height="16" data-original="#000000" class="active-path" style="fill:#222224" data-old_color="#000000"/><rect x="400" y="320" width="16" height="16" data-original="#000000" class="active-path" style="fill:#222224" data-old_color="#000000"/><rect x="400" y="352" width="16" height="16" data-original="#000000" class="active-path" style="fill:#222224" data-old_color="#000000"/><rect x="416" y="336" width="16" height="16" data-original="#000000" class="active-path" style="fill:#222224" data-old_color="#000000"/><rect x="384" y="336" width="16" height="16" data-original="#000000" class="active-path" style="fill:#222224" data-old_color="#000000"/><rect x="56" y="240" width="16" height="16" data-original="#000000" class="active-path" style="fill:#222224" data-old_color="#000000"/><rect x="56" y="272" width="16" height="16" data-original="#000000" class="active-path" style="fill:#222224" data-old_color="#000000"/><rect x="72" y="256" width="16" height="16" data-original="#000000" class="active-path" style="fill:#222224" data-old_color="#000000"/><rect x="40" y="256" width="16" height="16" data-original="#000000" class="active-path" style="fill:#222224" data-old_color="#000000"/><rect x="16" y="120" width="16" height="16" data-original="#000000" class="active-path" style="fill:#222224" data-old_color="#000000"/><rect x="16" y="152" width="16" height="16" data-original="#000000" class="active-path" style="fill:#222224" data-old_color="#000000"/><rect x="32" y="136" width="16" height="16" data-original="#000000" class="active-path" style="fill:#222224" data-old_color="#000000"/><rect y="136" width="16" height="16" data-original="#000000" class="active-path" style="fill:#222224" data-old_color="#000000"/></g> </svg>
