<svg id="Слой_1" data-name="Слой 1" xmlns="http://www.w3.org/2000/svg" width="401.31" height="100" viewBox="0 0 401.31 100">
  <defs>
    <style>
      .cls-1 {
        fill: #d39e00;
      }

      .cls-2 {
        fill: #191a1c;
      }
    </style>
  </defs>
  <title>principle-sprites</title>
  <g>
    <rect class="cls-1" x="371.57" y="2.29" width="11.85" height="11.85" transform="translate(156.27 317.76) rotate(-56.31)"/>
    <path class="cls-2" d="M372.17,83.48a4.89,4.89,0,0,0,3.18-5.24l-2.78-20.85V42.58l12.12-4.33a4.54,4.54,0,0,0,2.94-3.45l1.84-10.15,15.07,9.6,1.77-2.78L390,21.1a4.84,4.84,0,0,0-4.83-4.67,5,5,0,0,0-1.89.39L370.17,8.47l-1.77,2.78,12.43,7.91a4.49,4.49,0,0,0-.44,1.37l-1.53,9.91-9.64,3.27a9.75,9.75,0,0,0-12.46-.46l-.5.42-5.05,4.58V33a5.05,5.05,0,0,0-4.11-5,4.93,4.93,0,0,0-5.74,4.86V46.25A6.32,6.32,0,0,0,351.9,51l1-.86v7.3l-2.77,20.73a5,5,0,0,0,3.17,5.36,34,34,0,0,0-7.58,3.14L327.12,97.14l1.62,2.86L347.3,89.48a31.41,31.41,0,0,1,30.83,0L396.69,100l1.62-2.86L379.75,86.62A34.48,34.48,0,0,0,372.17,83.48Zm-22.47-35a3,3,0,0,1-2,.78,3,3,0,0,1-3-3V32.86a1.65,1.65,0,0,1,1.93-1.62A1.78,1.78,0,0,1,347.93,33V45.67l2.74-2.49,7.71-7,.41-.35a6.59,6.59,0,0,1,8.78.86l.72.8,13.51-4.58L383.63,21l0-.07,2.82,1.79-2.09,11.46a1.26,1.26,0,0,1-.81.95l-14.3,5.11V57.5l2.81,21.17a1.62,1.62,0,0,1-1.87,1.81A1.73,1.73,0,0,1,368.87,79l-3.08-23.1h-6.16l-3.1,23.24a1.62,1.62,0,0,1-2.07,1.33,1.68,1.68,0,0,1-1.11-1.88l2.77-20.83,0-15Zm8.58,33.93a4.91,4.91,0,0,0,1.51-2.91l2.72-20.39h.41l2.7,20.25a5.14,5.14,0,0,0,1.56,3.06A34.43,34.43,0,0,0,358.28,82.44Z" transform="translate(-5)"/>
    <path class="cls-2" d="M372.57,21.36a9.86,9.86,0,1,0-9.86,9.86A9.87,9.87,0,0,0,372.57,21.36Zm-9.86,6.57a6.57,6.57,0,1,1,6.57-6.57A6.58,6.58,0,0,1,362.71,27.93Z" transform="translate(-5)"/>
    <polygon class="cls-2" points="397.14 44.36 393.85 44.36 393.85 47.65 390.57 47.65 390.57 50.93 393.85 50.93 393.85 54.22 397.14 54.22 397.14 50.93 400.42 50.93 400.42 47.65 397.14 47.65 397.14 44.36"/>
    <polygon class="cls-2" points="384 60.79 384 59.14 385.64 59.14 385.64 55.86 384 55.86 384 54.22 380.71 54.22 380.71 55.86 379.07 55.86 379.07 59.14 380.71 59.14 380.71 60.79 384 60.79"/>
    <polygon class="cls-2" points="393.85 59.14 390.57 59.14 390.57 62.43 387.28 62.43 387.28 65.72 390.57 65.72 390.57 69 393.85 69 393.85 65.72 397.14 65.72 397.14 62.43 393.85 62.43 393.85 59.14"/>
    <polygon class="cls-2" points="333.07 14.79 336.36 14.79 336.36 11.5 339.64 11.5 339.64 8.22 336.36 8.22 336.36 4.93 333.07 4.93 333.07 8.22 329.79 8.22 329.79 11.5 333.07 11.5 333.07 14.79"/>
    <polygon class="cls-2" points="319.93 9.86 319.93 8.22 321.57 8.22 321.57 4.93 319.93 4.93 319.93 3.29 316.64 3.29 316.64 4.93 315 4.93 315 8.22 316.64 8.22 316.64 9.86 319.93 9.86"/>
    <polygon class="cls-2" points="324.86 24.65 324.86 21.36 328.14 21.36 328.14 18.07 324.86 18.07 324.86 14.79 321.57 14.79 321.57 18.07 318.29 18.07 318.29 21.36 321.57 21.36 321.57 24.65 324.86 24.65"/>
  </g>
  <g>
    <circle class="cls-1" cx="156.62" cy="67.75" r="22.58"/>
    <path class="cls-2" d="M208.82,43.73a4.81,4.81,0,0,0-3.32-1.66l-3-.21L166.38,5.71a6.42,6.42,0,0,0-12.75-.07l-35,30v-.19h0a5.14,5.14,0,0,0-5.17,4.68L110,88.53a5,5,0,0,0,1.17,3.57,4.87,4.87,0,0,0,3.31,1.68l86.89,6.2.35,0a4.84,4.84,0,0,0,4.82-4.49L210,47.24A4.84,4.84,0,0,0,208.82,43.73ZM160,3.23a3.23,3.23,0,1,1-3.23,3.22A3.23,3.23,0,0,1,160,3.23Zm-5.73,6.12a6.4,6.4,0,0,0,11.37.18l32,32-74.44-5.3Zm49.06,85.93a1.65,1.65,0,0,1-.55,1.11,1.68,1.68,0,0,1-1.17.39l-86.89-6.19a1.58,1.58,0,0,1-1.1-.56,1.6,1.6,0,0,1-.39-1.17l3.44-48.26a1.62,1.62,0,0,1,1.61-1.5h.11l86.88,6.19a1.65,1.65,0,0,1,1.11.55,1.62,1.62,0,0,1,.39,1.17Z" transform="translate(-5)"/>
    <rect class="cls-2" x="156.66" y="8.08" width="3.23" height="77.43" transform="translate(95.35 201.34) rotate(-85.92)"/>
    <rect class="cls-2" x="200.11" y="48.27" width="3.23" height="3.23" transform="translate(132.61 247.55) rotate(-85.92)"/>
    <rect class="cls-2" x="153.68" y="49.91" width="3.23" height="77.43" transform="matrix(0.07, -1, 1, 0.07, 50.85, 237.23)"/>
    <rect class="cls-2" x="197.12" y="90.1" width="3.23" height="3.23" transform="translate(88.14 283.43) rotate(-85.93)"/>
    <path class="cls-2" d="M132.94,80.55a7.28,7.28,0,0,0,7.24-6.75l1-14.48a7.26,7.26,0,1,0-14.48-1l-1,14.48a7.26,7.26,0,0,0,6.72,7.76Zm-4-7.55,1-14.48a4,4,0,0,1,4-3.75h.29A4.06,4.06,0,0,1,138,59.09l-1,14.48a4,4,0,0,1-8.05-.57Z" transform="translate(-5)"/>
    <path class="cls-2" d="M147.93,55.76l3.22.23a4.84,4.84,0,1,1-.69,9.65l-3.22-.23L147,68.63l3.22.23a8.07,8.07,0,1,0,1.15-16.09l-6.44-.46-2.06,29,3.22.23L147,68.63Z" transform="translate(-5)"/>
    <polygon class="cls-2" points="170.28 57.71 170.51 54.49 157.64 53.57 155.58 82.53 168.45 83.45 168.68 80.23 159.02 79.55 159.71 69.89 169.37 70.58 169.59 67.36 159.94 66.67 160.63 57.02 170.28 57.71"/>
    <polygon class="cls-2" points="184.77 81.38 184.49 81.36 181.5 55.27 175.34 54.83 173.28 83.79 176.49 84.03 178.32 58.28 178.6 58.3 181.59 84.39 187.75 84.83 189.82 55.87 186.6 55.64 184.77 81.38"/>
  </g>
  <g>
    <g>
      <rect class="cls-1" x="67.74" y="64.52" width="9.68" height="27.42"/>
      <rect class="cls-1" x="51.61" y="70.97" width="9.68" height="20.97"/>
      <rect class="cls-1" x="35.48" y="64.52" width="9.68" height="27.42"/>
      <path class="cls-1" d="M56.61,48.39H11.45V6.45H56.61Z" transform="translate(-5)"/>
    </g>
    <path class="cls-2" d="M92.1,22.58V0H5V91.94A8.07,8.07,0,0,0,13.06,100H96.94A8.07,8.07,0,0,0,105,91.94V22.58ZM8.23,91.94V3.23H88.87V91.94a7.93,7.93,0,0,0,1.66,4.83H13.06A4.84,4.84,0,0,1,8.23,91.94Zm93.54,0a4.84,4.84,0,0,1-9.67,0V25.81h9.67Z" transform="translate(-5)"/>
    <path class="cls-2" d="M34,35.48a3.22,3.22,0,0,1-3.22-3.22H27.58a6.44,6.44,0,0,0,4.84,6.22v3.46h3.23V38.48A6.44,6.44,0,0,0,34,25.81a3.23,3.23,0,1,1,3.23-3.23h3.22a6.44,6.44,0,0,0-4.83-6.22V12.9H32.42v3.46A6.44,6.44,0,0,0,34,29a3.23,3.23,0,1,1,0,6.45Z" transform="translate(-5)"/>
    <path class="cls-2" d="M45.32,61.29a4.81,4.81,0,0,0,3.62-1.66l7.69,3.08c0,.07,0,.13,0,.19a4.84,4.84,0,1,0,9.68,0c0-.06,0-.12,0-.19L74,59.64a4.82,4.82,0,1,0-1.22-3.19c0,.07,0,.13,0,.19l-7.69,3.08a4.77,4.77,0,0,0-7.23,0l-7.7-3.08a1.11,1.11,0,0,0,0-.19,4.84,4.84,0,1,0-4.84,4.84Zm32.26-6.45A1.61,1.61,0,1,1,76,56.45,1.61,1.61,0,0,1,77.58,54.84ZM61.45,61.29a1.62,1.62,0,1,1-1.61,1.61A1.61,1.61,0,0,1,61.45,61.29ZM45.32,54.84a1.61,1.61,0,1,1-1.61,1.61A1.62,1.62,0,0,1,45.32,54.84Z" transform="translate(-5)"/>
    <rect class="cls-2" x="32.26" y="90.32" width="48.39" height="3.23"/>
    <rect class="cls-2" x="54.84" y="6.45" width="25.81" height="3.23"/>
    <rect class="cls-2" x="54.84" y="12.9" width="25.81" height="3.23"/>
    <rect class="cls-2" x="54.84" y="19.35" width="25.81" height="3.23"/>
    <rect class="cls-2" x="54.84" y="25.81" width="25.81" height="3.23"/>
    <rect class="cls-2" x="54.84" y="32.26" width="19.35" height="3.23"/>
    <rect class="cls-2" x="77.42" y="32.26" width="3.23" height="3.23"/>
    <rect class="cls-2" x="6.45" y="51.61" width="25.81" height="3.23"/>
    <rect class="cls-2" x="6.45" y="58.06" width="25.81" height="3.23"/>
    <rect class="cls-2" x="6.45" y="64.52" width="25.81" height="3.23"/>
    <rect class="cls-2" x="6.45" y="70.97" width="25.81" height="3.23"/>
    <rect class="cls-2" x="29.03" y="77.42" width="3.23" height="3.23"/>
    <rect class="cls-2" x="6.45" y="77.42" width="19.35" height="3.23"/>
    <rect class="cls-2" x="38.71" y="25.81" width="3.23" height="3.23"/>
    <rect class="cls-2" x="16.13" y="25.81" width="3.23" height="3.23"/>
  </g>
  <g>
    <path class="cls-1" d="M250.48,77.42a27.37,27.37,0,0,1-13.91-3.82l1.65-2.78a24.15,24.15,0,0,0,33.09-33.09l2.78-1.64a27.39,27.39,0,0,1-23.61,41.33Z" transform="translate(-5)"/>
    <path class="cls-1" d="M226.88,63.91A27.38,27.38,0,0,1,264.39,26.4l-1.64,2.78a24.15,24.15,0,0,0-33.09,33.09Z" transform="translate(-5)"/>
    <g>
      <path class="cls-1" d="M231.58,59a20.71,20.71,0,0,1-2.06-9,20.93,20.93,0,0,1,30-18.91L258.12,34a17.7,17.7,0,0,0-23.63,23.63Z" transform="translate(-5)"/>
      <path class="cls-1" d="M250.48,71a20.88,20.88,0,0,1-9-2.06L242.85,66a17.7,17.7,0,0,0,23.63-23.63L269.39,41a20.71,20.71,0,0,1,2.06,9A21,21,0,0,1,250.48,71Z" transform="translate(-5)"/>
    </g>
    <g>
      <path class="cls-2" d="M303.12,79.39a14.43,14.43,0,0,1-4.25-10.26v-.59a16.59,16.59,0,0,1,3-9.13,11.29,11.29,0,0,0,1.71-8,11.43,11.43,0,0,0-7.92-9V0h-66.8L215,13.85v79.7h57.32V90.32H218.23V16.13h12.9V3.23h61.29V41.94a11.29,11.29,0,0,0-11.29,11.29,11.2,11.2,0,0,0,2.2,6.69A14.89,14.89,0,0,1,286,68.76v.37a14.43,14.43,0,0,1-4.25,10.26l-2.2,2.2v7.12h3.22V83.87H302.1v4.84h3.22V81.59ZM220.51,12.9l7.39-7.39V12.9Zm68.68,56.23v-.37A18,18,0,0,0,285.93,58a8,8,0,0,1-1.58-4.77,8.08,8.08,0,0,1,2.71-6,8,8,0,0,1,6.34-2,8.06,8.06,0,0,1,5.77,12.42,19.67,19.67,0,0,0-3.52,10.9v.59a17.62,17.62,0,0,0,4.26,11.52h-15A17.64,17.64,0,0,0,289.19,69.13Z" transform="translate(-5)"/>
      <path class="cls-2" d="M292.42,54.84A1.62,1.62,0,1,1,294,53.23h3.23a4.84,4.84,0,1,0-4.84,4.83Z" transform="translate(-5)"/>
      <path class="cls-2" d="M277.57,32.52a32.44,32.44,0,0,0-4.28-5.33A32.79,32.79,0,0,0,268,22.91l-1.1-.7L222.69,66.39l.71,1.09a32.22,32.22,0,0,0,9.6,9.61l1.1.71,44.18-44.19ZM233.68,73.65a28.85,28.85,0,0,1-6.84-6.84l40.45-40.46a27.78,27.78,0,0,1,6.84,6.84Z" transform="translate(-5)"/>
      <rect class="cls-2" x="264.33" y="32.26" width="4.56" height="3.23" transform="translate(49.14 198.44) rotate(-45)"/>
      <rect class="cls-2" x="257.88" y="38.71" width="4.56" height="3.23" transform="translate(42.69 195.77) rotate(-45)"/>
      <rect class="cls-2" x="251.43" y="45.16" width="4.56" height="3.23" transform="translate(36.24 193.1) rotate(-45)"/>
      <rect class="cls-2" x="244.98" y="51.61" width="4.56" height="3.23" transform="translate(29.78 190.43) rotate(-45)"/>
      <rect class="cls-2" x="238.53" y="58.06" width="4.56" height="3.23" transform="translate(23.33 187.75) rotate(-45)"/>
      <rect class="cls-2" x="232.07" y="64.52" width="4.56" height="3.23" transform="translate(16.88 185.08) rotate(-45)"/>
      <rect class="cls-2" x="255.16" y="6.45" width="29.03" height="3.23"/>
      <rect class="cls-2" x="229.35" y="12.9" width="54.84" height="3.23"/>
      <rect class="cls-2" x="216.45" y="83.87" width="3.23" height="3.23"/>
      <rect class="cls-2" x="222.9" y="83.87" width="41.94" height="3.23"/>
    </g>
    <path class="cls-1" d="M315,100H269.84V95.16a8.07,8.07,0,0,1,8.06-8.06h29A8.07,8.07,0,0,1,315,95.16Z" transform="translate(-5)"/>
  </g>
</svg>
