<?xml version="1.0"?>
<svg xmlns="http://www.w3.org/2000/svg" xmlns:xlink="http://www.w3.org/1999/xlink" version="1.1" id="Capa_1" x="0px" y="0px" viewBox="0 0 496 496" style="enable-background:new 0 0 496 496;" xml:space="preserve" width="512px" height="512px" class=""><g><link xmlns="" type="text/css" id="dark-mode" rel="stylesheet" href=""/><style xmlns="" type="text/css" id="dark-mode-custom-style"/><g>
	<rect x="336" y="320" style="fill:#D39E00" width="48" height="136" data-original="#F0BC5E" class="" data-old_color="#d39e00"/>
	<rect x="256" y="352" style="fill:#D39E00" width="48" height="104" data-original="#F0BC5E" class="" data-old_color="#d39e00"/>
	<rect x="176" y="320" style="fill:#D39E00" width="48" height="136" data-original="#F0BC5E" class="" data-old_color="#d39e00"/>
	<path style="fill:#D39E00" d="M256,240H32V32h224V240z" data-original="#F0BC5E" class="" data-old_color="#d39e00"/>
</g><path d="M432,112V0H0v456c0,22.056,17.944,40,40,40h416c22.056,0,40-17.944,40-40V112H432z M16,456V16h400v96v40v304  c0,9.04,3.128,17.296,8.208,24H40C26.768,480,16,469.232,16,456z M480,456c0,13.232-10.768,24-24,24s-24-10.768-24-24V152v-24h48  V456z" data-original="#000000" class="active-path" style="fill:#222224" data-old_color="#000000"/><path d="M144,176c-8.824,0-16-7.176-16-16h-16c0,14.864,10.232,27.288,24,30.864V208h16v-17.136c13.768-3.576,24-16,24-30.864  c0-17.648-14.352-32-32-32c-8.824,0-16-7.176-16-16s7.176-16,16-16s16,7.176,16,16h16c0-14.864-10.232-27.288-24-30.864V64h-16  v17.136c-13.768,3.576-24,16-24,30.864c0,17.648,14.352,32,32,32c8.824,0,16,7.176,16,16S152.824,176,144,176z" data-original="#000000" class="active-path" style="fill:#222224" data-old_color="#000000"/><path d="M200,304c7.168,0,13.536-3.216,17.936-8.216l38.16,15.264C256.08,311.376,256,311.672,256,312c0,13.232,10.768,24,24,24  s24-10.768,24-24c0-0.328-0.08-0.624-0.096-0.944l38.16-15.264c4.4,4.992,10.768,8.208,17.936,8.208c13.232,0,24-10.768,24-24  s-10.768-24-24-24s-24,10.768-24,24c0,0.328,0.08,0.624,0.096,0.944l-38.16,15.264C293.536,291.216,287.168,288,280,288  s-13.536,3.216-17.936,8.216l-38.16-15.264C223.92,280.624,224,280.328,224,280c0-13.232-10.768-24-24-24s-24,10.768-24,24  S186.768,304,200,304z M360,272c4.416,0,8,3.592,8,8s-3.584,8-8,8s-8-3.592-8-8S355.584,272,360,272z M280,304c4.416,0,8,3.592,8,8  s-3.584,8-8,8s-8-3.592-8-8S275.584,304,280,304z M200,272c4.416,0,8,3.592,8,8s-3.584,8-8,8s-8-3.592-8-8S195.584,272,200,272z" data-original="#000000" class="active-path" style="fill:#222224" data-old_color="#000000"/><rect x="160" y="448" width="240" height="16" data-original="#000000" class="active-path" style="fill:#222224" data-old_color="#000000"/><rect x="272" y="32" width="128" height="16" data-original="#000000" class="active-path" style="fill:#222224" data-old_color="#000000"/><rect x="272" y="64" width="128" height="16" data-original="#000000" class="active-path" style="fill:#222224" data-old_color="#000000"/><rect x="272" y="96" width="128" height="16" data-original="#000000" class="active-path" style="fill:#222224" data-old_color="#000000"/><rect x="272" y="128" width="128" height="16" data-original="#000000" class="active-path" style="fill:#222224" data-old_color="#000000"/><rect x="272" y="160" width="96" height="16" data-original="#000000" class="active-path" style="fill:#222224" data-old_color="#000000"/><rect x="384" y="160" width="16" height="16" data-original="#000000" class="active-path" style="fill:#222224" data-old_color="#000000"/><rect x="32" y="256" width="128" height="16" data-original="#000000" class="active-path" style="fill:#222224" data-old_color="#000000"/><rect x="32" y="288" width="128" height="16" data-original="#000000" class="active-path" style="fill:#222224" data-old_color="#000000"/><rect x="32" y="320" width="128" height="16" data-original="#000000" class="active-path" style="fill:#222224" data-old_color="#000000"/><rect x="32" y="352" width="128" height="16" data-original="#000000" class="active-path" style="fill:#222224" data-old_color="#000000"/><rect x="144" y="384" width="16" height="16" data-original="#000000" class="active-path" style="fill:#222224" data-old_color="#000000"/><rect x="32" y="384" width="96" height="16" data-original="#000000" class="active-path" style="fill:#222224" data-old_color="#000000"/><rect x="192" y="128" width="16" height="16" data-original="#000000" class="active-path" style="fill:#222224" data-old_color="#000000"/><rect x="80" y="128" width="16" height="16" data-original="#000000" class="active-path" style="fill:#222224" data-old_color="#000000"/></g> </svg>
