<?xml version="1.0"?>
<svg xmlns="http://www.w3.org/2000/svg" xmlns:xlink="http://www.w3.org/1999/xlink" version="1.1" id="Capa_1" x="0px" y="0px" viewBox="0 0 496 496" style="enable-background:new 0 0 496 496;" xml:space="preserve" width="512px" height="512px" class=""><g><link xmlns="" type="text/css" id="dark-mode" rel="stylesheet" href=""/><style xmlns="" type="text/css" id="dark-mode-custom-style"/><path style="fill:#D39E00" d="M136,416c-44.112,0-80-35.888-80-80s35.888-80,80-80s80,35.888,80,80S180.112,416,136,416z" data-original="#F0BC5E" class="" data-old_color="#d39e00"/><path d="M496,440c0-22.056-17.944-40-40-40h-32v-14.152c0-39.496,8.848-81.24,27.064-127.632c4.64-11.832,6.04-24.872,4.04-37.712  c-3.576-22.968-18.792-42.64-39.104-52.888V0H0v448h272v16h16v32h192v-32h16V440z M439.296,222.968  c1.56,10.04,0.48,20.208-3.128,29.408C417.216,300.664,408,344.328,408,385.848V400h-48v-14.16c0-49.112-8.952-92.816-26.608-129.88  C329.816,248.456,328,240.392,328,232c0-15.904,6.8-31.12,18.664-41.736c12.024-10.768,27.576-15.696,43.768-13.904  C414.96,179.072,435.512,198.672,439.296,222.968z M272.808,432H16V16h384v145.84c-2.568-0.592-5.168-1.088-7.816-1.384  c-20.464-2.232-40.968,4.248-56.192,17.888C320.744,191.992,312,211.552,312,232c0,10.792,2.336,21.168,6.944,30.84  c16.624,34.904,25.056,76.288,25.056,123V400h-32C292.688,400,276.528,413.768,272.808,432z M480,448h-32v16h16v16H304v-16h128v-16  H288v-8c0-13.232,10.768-24,24-24h144c13.232,0,24,10.768,24,24V448z" data-original="#000000" class="active-path" style="fill:#222224" data-old_color="#000000"/><path d="M384,208c13.232,0,24,10.768,24,24h16c0-22.056-17.944-40-40-40V208z" data-original="#000000" class="active-path" style="fill:#222224" data-old_color="#000000"/><polygon points="134.616,356.648 101,329.752 91,342.248 137.384,379.352 246.352,236.856 233.648,227.144 " data-original="#000000" class="active-path" style="fill:#222224" data-old_color="#000000"/><path d="M112,128c0-17.648-14.352-32-32-32H64c-8.824,0-16-7.176-16-16s7.176-16,16-16h16c8.824,0,16,7.176,16,16h16  c0-17.648-14.352-32-32-32V32H64v16c-17.648,0-32,14.352-32,32s14.352,32,32,32h16c8.824,0,16,7.176,16,16s-7.176,16-16,16H64  c-8.824,0-16-7.176-16-16H32c0,17.648,14.352,32,32,32v16h16v-16C97.648,160,112,145.648,112,128z" data-original="#000000" class="active-path" style="fill:#222224" data-old_color="#000000"/><rect x="168" y="32" width="208" height="16" data-original="#000000" class="active-path" style="fill:#222224" data-old_color="#000000"/><rect x="136" y="64" width="240" height="16" data-original="#000000" class="active-path" style="fill:#222224" data-old_color="#000000"/><rect x="136" y="96" width="240" height="16" data-original="#000000" class="active-path" style="fill:#222224" data-old_color="#000000"/><rect x="136" y="128" width="240" height="16" data-original="#000000" class="active-path" style="fill:#222224" data-old_color="#000000"/><rect x="136" y="160" width="136" height="16" data-original="#000000" class="active-path" style="fill:#222224" data-old_color="#000000"/><rect x="136" y="32" width="16" height="16" data-original="#000000" class="active-path" style="fill:#222224" data-old_color="#000000"/><rect x="288" y="160" width="16" height="16" data-original="#000000" class="active-path" style="fill:#222224" data-old_color="#000000"/></g> </svg>
