<svg xmlns="http://www.w3.org/2000/svg" xmlns:xlink="http://www.w3.org/1999/xlink" width="126" height="60" viewBox="0 0 126 60">
  <defs>
    <style>
      .cls-1 {
        fill: #fff;
      }

      .cls-2 {
        fill: #3d5a99;
      }

      .cls-3 {
        fill: #44c1f0;
      }

      .cls-4 {
        fill: url(#Безымянный_градиент_3);
      }

      .cls-5 {
        fill: url(#Безымянный_градиент_3-3);
      }

      .cls-6 {
        fill: #fcfcfd;
      }

      .cls-7 {
        fill: #0678b6;
      }
    </style>
    <linearGradient id="Безымянный_градиент_3" data-name="Безымянный градиент 3" x1="111" y1="-394.09" x2="111" y2="-423.77" gradientTransform="translate(0 454)" gradientUnits="userSpaceOnUse">
      <stop offset="0" stop-color="#e09b3c"/>
      <stop offset="0.3" stop-color="#c84c4d"/>
      <stop offset="0.6" stop-color="#c31b76"/>
      <stop offset="1" stop-color="#5b3f92"/>
    </linearGradient>
    <linearGradient id="Безымянный_градиент_3-3" x1="118.77" y1="-394.09" x2="118.77" y2="-423.77" xlink:href="#Безымянный_градиент_3"/>
  </defs>
  <title>social-sprites</title>
  <g id="Слой_2" data-name="Слой 2">
    <g>
      <path class="cls-1" d="M116.63,0H105.38A9.38,9.38,0,0,0,96,9.38V20.63A9.38,9.38,0,0,0,105.38,30h11.25A9.38,9.38,0,0,0,126,20.63V9.38A9.38,9.38,0,0,0,116.63,0Zm6.56,20.63a6.58,6.58,0,0,1-6.56,6.56H105.38a6.58,6.58,0,0,1-6.57-6.56V9.38a6.58,6.58,0,0,1,6.57-6.57h11.25a6.58,6.58,0,0,1,6.56,6.57Z" transform="translate(0 0)"/>
      <path class="cls-1" d="M111,7.5a7.5,7.5,0,1,0,7.5,7.5A7.5,7.5,0,0,0,111,7.5Zm0,12.19A4.69,4.69,0,1,1,115.69,15,4.7,4.7,0,0,1,111,19.69Z" transform="translate(0 0)"/>
      <circle class="cls-1" cx="119.06" cy="6.94" r="1"/>
    </g>
    <path class="cls-2" d="M47.58,35H44.76c-2.22,0-2.65,1.05-2.65,2.6V41h5.28v5.34H42.11V60H36.6V46.32H32V41h4.6V37.05c0-4.56,2.79-7,6.86-7h4.12v5Z" transform="translate(0 0)"/>
    <path class="cls-1" d="M47.58,5H44.76c-2.22,0-2.65,1-2.65,2.6V11h5.28v5.34H42.11V30H36.6V16.32H32V11h4.6V7.05c0-4.56,2.79-7,6.86-7h4.12V5Z" transform="translate(0 0)"/>
    <path class="cls-3" d="M94.79,33.57a.2.2,0,0,0-.22,0,14.8,14.8,0,0,1-3.45,1,7.59,7.59,0,0,0,2.69-3.78.18.18,0,0,0-.26-.22A14.66,14.66,0,0,1,89,32.35a7.67,7.67,0,0,0-13.19,5.31,7.51,7.51,0,0,0,.15,1.51,21.16,21.16,0,0,1-15-7.73.15.15,0,0,0-.15-.07.19.19,0,0,0-.15.09,7.7,7.7,0,0,0,1.85,9.85,7.23,7.23,0,0,1-2.67-.87.17.17,0,0,0-.18,0,.16.16,0,0,0-.09.15v.1A7.7,7.7,0,0,0,64.85,48a7.29,7.29,0,0,1-2.55,0,.19.19,0,0,0-.17.06.19.19,0,0,0,0,.18,7.63,7.63,0,0,0,6.65,5.29A14.72,14.72,0,0,1,60,56.38a15,15,0,0,1-1.77-.11.18.18,0,0,0-.19.12.19.19,0,0,0,.07.22A21.38,21.38,0,0,0,69.65,60c13.44,0,21.47-10.92,21.47-21.47,0-.29,0-.59,0-.88a15.26,15.26,0,0,0,3.7-3.86A.2.2,0,0,0,94.79,33.57Z" transform="translate(0 0)"/>
    <g>
      <path class="cls-4" d="M117.06,30H104.94A9,9,0,0,0,96,38.94V51.06A9,9,0,0,0,104.94,60h12.12A9,9,0,0,0,126,51.06V38.94A9,9,0,0,0,117.06,30ZM123,51.06A5.92,5.92,0,0,1,117.06,57H104.94A5.92,5.92,0,0,1,99,51.06V38.94A5.92,5.92,0,0,1,104.94,33h12.12A5.92,5.92,0,0,1,123,38.94V51.06Z" transform="translate(0 0)"/>
      <path class="cls-4" d="M111,37.24A7.76,7.76,0,1,0,118.76,45,7.77,7.77,0,0,0,111,37.24Zm0,12.5A4.74,4.74,0,1,1,115.74,45,4.74,4.74,0,0,1,111,49.74Z" transform="translate(0 0)"/>
      <circle class="cls-5" cx="118.77" cy="37.3" r="1.86"/>
    </g>
    <path class="cls-6" d="M94.79,3.57a.2.2,0,0,0-.22,0,14.8,14.8,0,0,1-3.45,1.05A7.59,7.59,0,0,0,93.81.79a.17.17,0,0,0-.06-.2.17.17,0,0,0-.2,0A14.66,14.66,0,0,1,89,2.35,7.67,7.67,0,0,0,75.76,7.66a7.51,7.51,0,0,0,.15,1.51,21.16,21.16,0,0,1-15-7.73.15.15,0,0,0-.15-.07.19.19,0,0,0-.15.09,7.7,7.7,0,0,0,1.85,9.85,7.23,7.23,0,0,1-2.67-.87.17.17,0,0,0-.18,0,.16.16,0,0,0-.09.15v.1A7.7,7.7,0,0,0,64.85,18a7.29,7.29,0,0,1-2.55,0,.19.19,0,0,0-.17.06.19.19,0,0,0,0,.18,7.63,7.63,0,0,0,6.65,5.29A14.72,14.72,0,0,1,60,26.38a15,15,0,0,1-1.77-.11.18.18,0,0,0-.19.12.19.19,0,0,0,.07.22A21.38,21.38,0,0,0,69.65,30C83.09,30,91.12,19.08,91.12,8.53c0-.29,0-.59,0-.88a15.26,15.26,0,0,0,3.7-3.86A.2.2,0,0,0,94.79,3.57Z" transform="translate(0 0)"/>
    <g>
      <path class="cls-6" d="M3.61,0A3.61,3.61,0,1,0,7.22,3.61,3.61,3.61,0,0,0,3.61,0Z" transform="translate(0 0)"/>
      <rect class="cls-6" x="0.5" y="9.96" width="6.23" height="20.04"/>
      <path class="cls-6" d="M22.58,9.46a6.53,6.53,0,0,0-5.89,3.24H16.6V10h-6V30h6.22V20.09c0-2.62.5-5.15,3.74-5.15s3.24,3,3.24,5.31V30h6.22V19C30.05,13.61,28.89,9.46,22.58,9.46Z" transform="translate(0 0)"/>
    </g>
    <g>
      <path class="cls-7" d="M3.61,30a3.61,3.61,0,1,0,3.61,3.61A3.61,3.61,0,0,0,3.61,30Z" transform="translate(0 0)"/>
      <rect class="cls-7" x="0.5" y="39.96" width="6.23" height="20.04"/>
      <path class="cls-7" d="M22.58,39.46a6.53,6.53,0,0,0-5.89,3.24H16.6V40h-6V60h6.22V50.09c0-2.62.5-5.15,3.74-5.15s3.24,3,3.24,5.31V60h6.22V49C30.05,43.61,28.89,39.46,22.58,39.46Z" transform="translate(0 0)"/>
    </g>
  </g>
</svg>
