<?xml version="1.0"?>
<svg xmlns="http://www.w3.org/2000/svg" xmlns:xlink="http://www.w3.org/1999/xlink" version="1.1" id="Capa_1" x="0px" y="0px" width="512px" height="512px" viewBox="0 0 612 612" style="enable-background:new 0 0 612 612;" xml:space="preserve" class=""><g><g>
	<g>
		<path d="M598.968,72.777c-8.656-8.839-19.354-13.397-32.013-13.397H434.433V34.062c0-11.539-8.935-20.474-20.474-20.474    s-20.474,8.935-20.474,20.474V59.38H218.896V34.062c0-11.539-9.308-20.474-20.847-20.474c-11.547,0-20.481,8.935-20.481,20.474    V59.38H45.045c-12.286,0-23.174,4.376-32.013,13.397C4.376,81.625,0,92.139,0,104.425v448.942c0,12.285,4.376,22.8,13.032,31.647    c8.839,9.021,19.727,13.397,32.013,13.397h521.91c12.659,0,23.547-4.376,32.013-13.032c8.656-8.84,13.032-19.728,13.032-32.013    V104.425C612,92.139,607.441,81.434,598.968,72.777z M571.053,553.367c0,1.492-2.239,3.725-4.098,3.725H45.045    c-1.858,0-4.09-2.232-4.09-3.725V250.718h530.098V553.367z M571.053,209.771H40.955V104.425c0-2.605,1.485-3.725,4.09-3.725    h132.522v8.935c0,11.539,8.935,20.847,20.481,20.847c11.54,0,20.847-9.308,20.847-20.847V100.7h174.589v8.935    c0,11.539,8.935,20.847,20.474,20.847s20.474-9.308,20.474-20.847V100.7h132.522c2.604,0,4.098,1.12,4.098,3.725V209.771z" data-original="#000000" class="active-path" data-old_color="#000000" fill="#457677"/>
		<path d="M219.634,372.821h246.811c11.539,0,20.474-9.308,20.474-20.847c0-11.54-8.935-20.474-20.474-20.474H219.634    c-11.539,0-20.847,8.934-20.847,20.474C198.788,363.514,208.095,372.821,219.634,372.821z" data-original="#000000" class="active-path" data-old_color="#000000" fill="#457677"/>
		<path d="M219.634,471.846h246.811c11.539,0,20.474-8.935,20.474-20.474s-8.935-20.847-20.474-20.847H219.634    c-11.539,0-20.847,9.308-20.847,20.847S208.095,471.846,219.634,471.846z" data-original="#000000" class="active-path" data-old_color="#000000" fill="#457677"/>
		<rect x="125.081" y="331.501" width="40.947" height="41.32" data-original="#000000" class="active-path" data-old_color="#000000" fill="#457677"/>
		<rect x="125.081" y="430.525" width="40.947" height="41.32" data-original="#000000" class="active-path" data-old_color="#000000" fill="#457677"/>
	</g>
</g></g> </svg>
